<svg width="28" height="28" viewBox="0 0 28 28" fill="none" xmlns="http://www.w3.org/2000/svg">
<path fill-rule="evenodd" clip-rule="evenodd" d="M9.10168 5.62385C9.05385 5.66818 9.04102 5.71135 9.04102 5.74285V12.2038C9.04102 13.8372 9.49135 15.2372 10.3045 16.2137C11.1013 17.168 12.3053 17.791 13.9993 17.791C15.6933 17.791 16.8973 17.168 17.6942 16.2137C18.5073 15.2383 18.9577 13.8372 18.9577 12.2038V5.74285C18.9577 5.71135 18.946 5.66818 18.897 5.62385C18.8325 5.56926 18.7505 5.53984 18.666 5.54102H9.33268C9.24821 5.53984 9.16616 5.56926 9.10168 5.62385ZM7.29102 5.74285C7.29102 4.59952 8.27218 3.79102 9.33268 3.79102H18.666C19.7265 3.79102 20.7077 4.60068 20.7077 5.74285V6.12435H22.166C23.293 6.12435 24.2077 7.03902 24.2077 8.16602V10.4993C24.2077 12.7253 22.4262 14.4905 20.3495 14.8195C20.0885 15.7383 19.6422 16.5939 19.0382 17.3337C18.043 18.526 16.6348 19.303 14.8743 19.4943V22.4577H17.4993C17.7314 22.4577 17.954 22.5499 18.1181 22.714C18.2822 22.8781 18.3743 23.1006 18.3743 23.3327C18.3743 23.5647 18.2822 23.7873 18.1181 23.9514C17.954 24.1155 17.7314 24.2077 17.4993 24.2077H10.4993C10.2673 24.2077 10.0447 24.1155 9.88063 23.9514C9.71654 23.7873 9.62435 23.5647 9.62435 23.3327C9.62435 23.1006 9.71654 22.8781 9.88063 22.714C10.0447 22.5499 10.2673 22.4577 10.4993 22.4577H13.1243V19.4943C11.3638 19.3018 9.95568 18.526 8.96052 17.3337C8.35646 16.5939 7.9102 15.7383 7.64918 14.8195C5.57252 14.4893 3.79102 12.7253 3.79102 10.4993V8.16602C3.79102 7.03902 4.70568 6.12435 5.83268 6.12435H7.29102V5.74285ZM7.29102 7.87435H5.83268C5.75533 7.87435 5.68114 7.90508 5.62644 7.95978C5.57174 8.01447 5.54102 8.08866 5.54102 8.16602V10.4993C5.54102 11.561 6.29235 12.527 7.31668 12.9283C7.29982 12.6876 7.29126 12.4464 7.29102 12.205V7.87435ZM20.682 12.9283C21.7063 12.527 22.4577 11.561 22.4577 10.4993V8.16602C22.4577 8.08866 22.427 8.01447 22.3723 7.95978C22.3176 7.90508 22.2434 7.87435 22.166 7.87435H20.7077V12.2038C20.7077 12.4473 20.6991 12.6888 20.682 12.9283Z" fill="#48AA71"/>
</svg>
