<svg width="56" height="56" viewBox="0 0 56 56" fill="none" xmlns="http://www.w3.org/2000/svg">
<circle cx="28" cy="28" r="28" fill="url(#paint0_linear_2766_9982)"/>
<g clip-path="url(#clip0_2766_9982)">
<path d="M39.6673 20.044L26.3557 33.3673L21.409 28.4207L23.054 26.7757L26.3557 30.0773L38.0223 18.4107L39.6673 20.044ZM28.0007 37.334C22.8557 37.334 18.6673 33.1457 18.6673 28.0007C18.6673 22.8557 22.8557 18.6673 28.0007 18.6673C29.8323 18.6673 31.5473 19.204 32.994 20.1257L34.6856 18.434C32.784 17.1157 30.4857 16.334 28.0007 16.334C21.5607 16.334 16.334 21.5607 16.334 28.0007C16.334 34.4407 21.5607 39.6673 28.0007 39.6673C30.019 39.6673 31.9207 39.154 33.5773 38.244L31.8273 36.494C30.6607 37.0307 29.3657 37.334 28.0007 37.334ZM36.1673 31.5007H32.6673V33.834H36.1673V37.334H38.5007V33.834H42.0007V31.5007H38.5007V28.0007H36.1673V31.5007Z" fill="white"/>
</g>
<defs>
<linearGradient id="paint0_linear_2766_9982" x1="0" y1="28" x2="56" y2="28" gradientUnits="userSpaceOnUse">
<stop stop-color="#0D542B"/>
<stop offset="1" stop-color="#48AA71"/>
</linearGradient>
<clipPath id="clip0_2766_9982">
<rect width="28" height="28" fill="white" transform="translate(14 14)"/>
</clipPath>
</defs>
</svg>
