<svg width="28" height="28" viewBox="0 0 28 28" fill="none" xmlns="http://www.w3.org/2000/svg">
<path d="M26.25 9.625H25.2077L24.1916 4.88359C24.1062 4.49265 23.8901 4.14249 23.5789 3.89094C23.2677 3.6394 22.88 3.50149 22.4798 3.5H5.52016C5.12 3.50149 4.73232 3.6394 4.42112 3.89094C4.10991 4.14249 3.89379 4.49265 3.80844 4.88359L2.79234 9.625H1.75C1.51794 9.625 1.29538 9.71719 1.13128 9.88128C0.967187 10.0454 0.875 10.2679 0.875 10.5C0.875 10.7321 0.967187 10.9546 1.13128 11.1187C1.29538 11.2828 1.51794 11.375 1.75 11.375H2.625V21.875C2.625 22.3391 2.80937 22.7842 3.13756 23.1124C3.46575 23.4406 3.91087 23.625 4.375 23.625H7C7.46413 23.625 7.90925 23.4406 8.23744 23.1124C8.56563 22.7842 8.75 22.3391 8.75 21.875V19.25H19.25V21.875C19.25 22.3391 19.4344 22.7842 19.7626 23.1124C20.0908 23.4406 20.5359 23.625 21 23.625H23.625C24.0891 23.625 24.5342 23.4406 24.8624 23.1124C25.1906 22.7842 25.375 22.3391 25.375 21.875V11.375H26.25C26.4821 11.375 26.7046 11.2828 26.8687 11.1187C27.0328 10.9546 27.125 10.7321 27.125 10.5C27.125 10.2679 27.0328 10.0454 26.8687 9.88128C26.7046 9.71719 26.4821 9.625 26.25 9.625ZM5.52016 5.25H22.4798L23.4172 9.625H4.58281L5.52016 5.25ZM7 21.875H4.375V19.25H7V21.875ZM21 21.875V19.25H23.625V21.875H21ZM23.625 17.5H16.625V14C16.625 13.7679 16.5328 13.5454 16.3687 13.3813C16.2046 13.2172 15.9821 13.125 15.75 13.125C15.5179 13.125 15.2954 13.2172 15.1313 13.3813C14.9672 13.5454 14.875 13.7679 14.875 14V17.5H13.125V14C13.125 13.7679 13.0328 13.5454 12.8687 13.3813C12.7046 13.2172 12.4821 13.125 12.25 13.125C12.0179 13.125 11.7954 13.2172 11.6313 13.3813C11.4672 13.5454 11.375 13.7679 11.375 14V17.5H4.375V11.375H23.625V17.5ZM6.125 14.4375C6.125 14.1779 6.20198 13.9242 6.3462 13.7083C6.49042 13.4925 6.6954 13.3242 6.93523 13.2249C7.17506 13.1256 7.43896 13.0996 7.69356 13.1502C7.94816 13.2009 8.18202 13.3259 8.36558 13.5094C8.54913 13.693 8.67414 13.9268 8.72478 14.1814C8.77542 14.436 8.74943 14.6999 8.65009 14.9398C8.55075 15.1796 8.38252 15.3846 8.16669 15.5288C7.95085 15.673 7.69709 15.75 7.4375 15.75C7.0894 15.75 6.75556 15.6117 6.50942 15.3656C6.26328 15.1194 6.125 14.7856 6.125 14.4375ZM19.25 14.4375C19.25 14.1779 19.327 13.9242 19.4712 13.7083C19.6154 13.4925 19.8204 13.3242 20.0602 13.2249C20.3001 13.1256 20.564 13.0996 20.8186 13.1502C21.0732 13.2009 21.307 13.3259 21.4906 13.5094C21.6741 13.693 21.7991 13.9268 21.8498 14.1814C21.9004 14.436 21.8744 14.6999 21.7751 14.9398C21.6758 15.1796 21.5075 15.3846 21.2917 15.5288C21.0758 15.673 20.8221 15.75 20.5625 15.75C20.2144 15.75 19.8806 15.6117 19.6344 15.3656C19.3883 15.1194 19.25 14.7856 19.25 14.4375Z" fill="#48AA71"/>
</svg>
